<svg width="57" height="40" viewBox="0 0 57 40"  xmlns="http://www.w3.org/2000/svg">
<mask id="mask0_1_264" style="mask-type:alpha" maskUnits="userSpaceOnUse" x="0" y="0" width="57" height="40">
<path d="M0 0H56.9851V39.8827H0V0Z" />
</mask>
<g mask="url(#mask0_1_264)">
<path fill-rule="evenodd" clip-rule="evenodd" d="M23.706 4.3512C25.5441 2.43623 28.1035 1.24796 30.9339 1.24796C34.6962 1.24796 37.9791 3.34597 39.7267 6.46094C41.2905 5.76222 42.9843 5.40208 44.697 5.40419C51.4832 5.40419 56.9848 10.9537 56.9848 17.7998C56.9848 24.6459 51.4832 30.1956 44.697 30.1956C43.8683 30.1956 43.0591 30.1123 42.2763 29.9543C40.7372 32.6997 37.8032 34.555 34.4365 34.555C33.0747 34.5569 31.7306 34.2475 30.5066 33.6505C28.9464 37.3215 25.31 39.8953 21.0731 39.8953C16.6599 39.8953 12.8987 37.1032 11.456 33.1874C10.8129 33.3231 10.1575 33.3913 9.50036 33.391C4.24612 33.391 -0.0129395 29.0873 -0.0129395 23.7786C-0.0129395 20.2205 1.90036 17.1141 4.74413 15.4524C4.14162 14.065 3.83157 12.5683 3.83334 11.0557C3.83334 4.94995 8.78978 0 14.9037 0C18.4932 0 21.6834 1.70639 23.706 4.3512Z" />
<path fill-rule="evenodd" clip-rule="evenodd" d="M8.24269 20.6887C8.20688 20.7821 8.25546 20.8016 8.26698 20.8181C8.374 20.8956 8.48269 20.9517 8.59243 21.0148C9.17358 21.3224 9.7229 21.4127 10.2967 21.4127C11.4659 21.4127 12.1922 20.7911 12.1922 19.7901V19.7704C12.1922 18.8447 11.3723 18.5084 10.6039 18.2657L10.5036 18.2332C9.92415 18.0451 9.42405 17.8824 9.42405 17.5006V17.4812C9.42405 17.1542 9.71641 16.914 10.1694 16.914C10.6731 16.914 11.2699 17.0814 11.6548 17.2939C11.6548 17.2939 11.7683 17.3672 11.8096 17.2577C11.832 17.1984 12.0266 16.6745 12.0473 16.6177C12.0695 16.5563 12.0305 16.5101 11.9905 16.4862C11.551 16.2183 10.9438 16.0361 10.3154 16.0361L10.1987 16.0366C9.12855 16.0366 8.38133 16.6837 8.38133 17.6097V17.6296C8.38133 18.6056 9.20562 18.9228 9.97777 19.1434L10.1017 19.1819C10.6641 19.3545 11.1497 19.5036 11.1497 19.8992V19.9189C11.1497 20.2812 10.8341 20.5503 10.3258 20.5503C10.1288 20.5503 9.49965 20.5469 8.81986 20.117C8.73756 20.069 8.69065 20.0345 8.62719 19.9957C8.59368 19.9754 8.50991 19.9388 8.47347 20.0485L8.24269 20.6887ZM25.3589 20.6887C25.3231 20.7821 25.3717 20.8016 25.3836 20.8181C25.4902 20.8956 25.5991 20.9517 25.7087 21.0148C26.29 21.3224 26.8393 21.4127 27.4129 21.4127C28.5822 21.4127 29.3087 20.7911 29.3087 19.7901V19.7704C29.3087 18.8447 28.489 18.5084 27.7204 18.2657L27.6201 18.2332C27.0406 18.0451 26.5403 17.8824 26.5403 17.5006V17.4812C26.5403 17.1542 26.8328 16.914 27.286 16.914C27.7895 16.914 28.3861 17.0814 28.7711 17.2939C28.7711 17.2939 28.8846 17.3672 28.926 17.2577C28.9482 17.1984 29.143 16.6745 29.1635 16.6177C29.1859 16.5563 29.1468 16.5101 29.107 16.4862C28.6672 16.2183 28.0603 16.0361 27.4318 16.0361L27.3149 16.0366C26.245 16.0366 25.4978 16.6837 25.4978 17.6097V17.6296C25.4978 18.6056 26.3219 18.9228 27.0942 19.1434L27.218 19.1819C27.7805 19.3545 28.2661 19.5036 28.2661 19.8992V19.9189C28.2661 20.2812 27.9503 20.5503 27.4425 20.5503C27.245 20.5503 26.6159 20.5469 25.9363 20.117C25.854 20.069 25.8058 20.0359 25.7434 19.9957C25.7223 19.9823 25.6236 19.9438 25.5899 20.0485L25.3589 20.6887ZM37.0437 18.7277C37.0437 19.2931 36.9382 19.7396 36.7309 20.0544C36.5248 20.3664 36.2138 20.5182 35.7801 20.5182C35.3464 20.5182 35.037 20.3666 34.8343 20.0548C34.6297 19.7398 34.5258 19.2931 34.5258 18.7277C34.5258 18.1626 34.6297 17.7176 34.8343 17.406C35.037 17.0971 35.3464 16.9471 35.7801 16.9471C36.2138 16.9471 36.5248 17.0973 36.7309 17.4062C36.9386 17.7176 37.0437 18.1626 37.0437 18.7277ZM38.0201 17.6791C37.9239 17.3547 37.7746 17.0692 37.5759 16.8311C37.3767 16.5924 37.1248 16.4003 36.8261 16.2613C36.5279 16.122 36.1761 16.0514 35.7801 16.0514C35.384 16.0514 35.032 16.122 34.7336 16.2613C34.4354 16.4003 34.1832 16.5924 33.9841 16.8315C33.7855 17.0701 33.6358 17.3551 33.5401 17.6791C33.4448 18.001 33.3964 18.3538 33.3964 18.7277C33.3964 19.1017 33.4448 19.4548 33.5401 19.7762C33.6358 20.1 33.7851 20.3852 33.9843 20.6242C34.1834 20.8634 34.4362 21.0537 34.734 21.1894C35.0326 21.3251 35.3845 21.3942 35.7801 21.3942C36.1759 21.3942 36.5273 21.3251 36.8257 21.1894C37.1239 21.0537 37.3763 20.8634 37.5759 20.6242C37.7746 20.3861 37.9239 20.1004 38.0201 19.7762C38.1151 19.4541 38.1635 19.1013 38.1635 18.7277C38.1635 18.3542 38.1151 18.0012 38.0201 17.6791ZM46.0341 20.3668C46.0021 20.2719 45.9095 20.3078 45.9095 20.3078C45.7677 20.362 45.6169 20.4123 45.4557 20.4374C45.2932 20.4629 45.1133 20.4757 44.9208 20.4757C44.449 20.4757 44.0731 20.3352 43.8048 20.0575C43.5353 19.7796 43.3838 19.3306 43.3855 18.7233C43.387 18.1712 43.5206 17.7553 43.7602 17.4382C43.9977 17.1233 44.3604 16.9616 44.8427 16.9616C45.2454 16.9616 45.5526 17.0083 45.8745 17.1092C45.8745 17.1092 45.951 17.1425 45.9876 17.0418C46.0733 16.8045 46.1365 16.6357 46.2278 16.375C46.2538 16.3006 46.1901 16.2692 46.1669 16.2602C46.0404 16.2108 45.7415 16.1297 45.516 16.0956C45.3051 16.0634 45.0586 16.0466 44.7836 16.0466C44.3738 16.0466 44.0083 16.1168 43.6959 16.2558C43.384 16.3947 43.1195 16.5865 42.9099 16.825C42.7003 17.064 42.5407 17.3494 42.4351 17.6732C42.3294 17.9953 42.276 18.3488 42.276 18.7237C42.276 19.5331 42.4944 20.1871 42.9252 20.6663C43.3575 21.1471 44.0058 21.3913 44.8521 21.3913C45.352 21.3913 45.8649 21.2902 46.2343 21.1448C46.2343 21.1448 46.3047 21.1109 46.2741 21.0288L46.0341 20.3668ZM47.7417 18.1855C47.7884 17.8711 47.8745 17.61 48.0088 17.406C48.2113 17.0971 48.5195 16.9268 48.9533 16.9268C49.3872 16.9268 49.6731 17.0973 49.8791 17.4062C50.0153 17.6104 50.0747 17.8824 50.098 18.1859L47.7417 18.1855ZM51.0274 17.495C50.9443 17.1821 50.7394 16.8661 50.6048 16.7216C50.3922 16.4925 50.184 16.3321 49.9773 16.2435C49.6782 16.1163 49.3564 16.051 49.0314 16.0514C48.619 16.0514 48.2444 16.1212 47.9405 16.2636C47.6362 16.4064 47.3805 16.6016 47.1801 16.8441C46.9792 17.0864 46.8287 17.3748 46.7325 17.7019C46.6362 18.0271 46.5876 18.3817 46.5876 18.7561C46.5876 19.1369 46.6381 19.4918 46.7373 19.811C46.8377 20.1329 46.9987 20.4154 47.2161 20.6506C47.4333 20.8866 47.7128 21.0717 48.0469 21.2007C48.3792 21.3295 48.783 21.3963 49.246 21.3949C50.2006 21.3917 50.7026 21.179 50.9099 21.0644C50.9466 21.0439 50.9811 21.0085 50.938 20.9065L50.7218 20.3017C50.6888 20.2114 50.5975 20.2441 50.5975 20.2441C50.3606 20.3325 50.0253 20.4902 49.2412 20.4885C48.729 20.4877 48.3495 20.3362 48.111 20.0998C47.867 19.8579 47.7472 19.5027 47.7269 19.001L51.0299 19.0035C51.0299 19.0035 51.117 19.0026 51.126 18.9176C51.1296 18.8824 51.2393 18.2391 51.0274 17.495ZM21.2833 18.1855C21.33 17.8711 21.4163 17.61 21.5503 17.406C21.7531 17.0971 22.0609 16.9268 22.495 16.9268C22.929 16.9268 23.2148 17.0973 23.4209 17.4062C23.5568 17.6104 23.6163 17.8824 23.6395 18.1859L21.2833 18.1855ZM24.569 17.495C24.486 17.1821 24.281 16.8661 24.1466 16.7216C23.934 16.4925 23.726 16.3321 23.5191 16.2435C23.22 16.1164 22.8982 16.0511 22.5732 16.0514C22.1608 16.0514 21.7861 16.1212 21.4823 16.2636C21.178 16.4064 20.9223 16.6016 20.7214 16.8441C20.521 17.0864 20.3704 17.3748 20.2739 17.7019C20.1778 18.0271 20.1294 18.3817 20.1294 18.7561C20.1294 19.1369 20.1794 19.4918 20.2793 19.811C20.3794 20.1329 20.5407 20.4154 20.7577 20.6506C20.975 20.8866 21.2544 21.0717 21.5884 21.2007C21.921 21.3295 22.3244 21.3963 22.7878 21.3949C23.7422 21.3917 24.2444 21.179 24.4517 21.0644C24.4881 21.0439 24.5229 21.0085 24.4795 20.9065L24.2636 20.3017C24.2303 20.2114 24.139 20.2441 24.139 20.2441C23.9024 20.3325 23.5671 20.4902 22.7828 20.4885C22.2708 20.4877 21.8911 20.3362 21.6525 20.0998C21.4088 19.8579 21.2888 19.5027 21.2684 19.001L24.5717 19.0035C24.5717 19.0035 24.6588 19.0026 24.6678 18.9176C24.6714 18.8824 24.7811 18.2391 24.569 17.495ZM14.1426 20.3488C14.013 20.2453 13.9949 20.22 13.952 20.1528C13.8865 20.0516 13.853 19.9075 13.853 19.723C13.853 19.433 13.9493 19.224 14.1478 19.0837C14.1457 19.0841 14.4326 18.8361 15.1059 18.8449C15.4063 18.8503 15.706 18.8758 16.0029 18.9214V20.4229H16.0033C16.0033 20.4229 15.5834 20.5132 15.1108 20.5417C14.4389 20.5821 14.1405 20.3482 14.1426 20.3488ZM15.4571 18.0271C15.3231 18.0173 15.1495 18.0125 14.9413 18.0125C14.6584 18.0125 14.3847 18.0477 14.1277 18.1168C13.8697 18.1863 13.6377 18.2939 13.4381 18.4366C13.2386 18.579 13.0746 18.7655 12.9587 18.9815C12.8416 19.1995 12.782 19.4556 12.782 19.7427C12.782 20.0357 12.8328 20.2895 12.9334 20.4969C13.0317 20.7024 13.1798 20.8802 13.3642 21.0141C13.5478 21.1478 13.7744 21.2458 14.0372 21.3057C14.2967 21.3649 14.5908 21.3949 14.912 21.3949C15.2513 21.3949 15.5887 21.3664 15.9156 21.3113C16.194 21.2633 16.4714 21.2094 16.7476 21.1496C16.8578 21.1243 16.9792 21.091 16.9792 21.091C17.0609 21.0703 17.0546 20.9829 17.0546 20.9829L17.0527 17.9618C17.0527 17.2992 16.876 16.8083 16.5277 16.5034C16.1811 16.1999 15.6708 16.0466 15.0104 16.0466C14.7625 16.0466 14.3642 16.0801 14.125 16.1281C14.125 16.1281 13.4037 16.268 13.1068 16.5006C13.1068 16.5006 13.0414 16.5408 13.077 16.6319L13.311 17.2602C13.3401 17.3417 13.4194 17.3138 13.4194 17.3138C13.4194 17.3138 13.4444 17.304 13.4737 17.2866C14.1091 16.9411 14.9131 16.9513 14.9131 16.9513C15.2699 16.9513 15.5449 17.0236 15.7296 17.1649C15.9099 17.3034 16.0014 17.5117 16.0014 17.9522V18.0918C15.7181 18.0508 15.4571 18.0271 15.4571 18.0271ZM42.1032 16.3251C42.108 16.3141 42.1105 16.3022 42.1105 16.2902C42.1106 16.2782 42.1083 16.2662 42.1036 16.2551C42.099 16.244 42.0922 16.234 42.0836 16.2256C42.075 16.2172 42.0648 16.2106 42.0536 16.2062C41.9972 16.1848 41.7164 16.1256 41.4999 16.1122C41.0846 16.0862 40.8544 16.1561 40.6479 16.2491C40.4431 16.3415 40.2163 16.4908 40.0898 16.6611L40.0894 16.2581C40.0894 16.2028 40.0502 16.1582 39.9945 16.1582H39.1476C39.0927 16.1582 39.0529 16.2028 39.0529 16.2581V21.1863C39.053 21.2129 39.0636 21.2384 39.0824 21.2572C39.1012 21.276 39.1267 21.2866 39.1533 21.2866H40.0213C40.0479 21.2865 40.0734 21.276 40.0921 21.2572C40.1109 21.2383 40.1214 21.2129 40.1214 21.1863V18.7245C40.1214 18.3938 40.1579 18.0644 40.2305 17.8573C40.3022 17.6523 40.3995 17.4889 40.5202 17.3714C40.6345 17.258 40.7744 17.1738 40.9281 17.126C41.0722 17.0846 41.2214 17.0636 41.3713 17.0636C41.544 17.0636 41.7342 17.108 41.7342 17.108C41.7979 17.1151 41.8333 17.0761 41.8548 17.0188C41.9116 16.8678 42.0724 16.4152 42.1032 16.3251Z" fill="grey"/>
<path fill-rule="evenodd" clip-rule="evenodd" d="M33.9566 14.0414C33.8494 14.009 33.7404 13.9831 33.6301 13.9639C33.4817 13.9391 33.3315 13.9275 33.1811 13.9291C32.5836 13.9291 32.1126 14.0979 31.7819 14.4313C31.4535 14.7622 31.2301 15.2663 31.118 15.9295L31.0776 16.1534H30.3277C30.3277 16.1534 30.2362 16.1496 30.2169 16.2495L30.0938 16.9364C30.0852 17.0022 30.1134 17.0432 30.2014 17.0428H30.9314L30.1907 21.1775C30.1327 21.5105 30.0663 21.7844 29.9928 21.9919C29.9203 22.1967 29.8496 22.3503 29.7624 22.4617C29.678 22.5695 29.598 22.6489 29.46 22.6952C29.3461 22.7335 29.215 22.7511 29.0713 22.7511C28.9913 22.7511 28.885 22.7377 28.8064 22.722C28.7279 22.7065 28.687 22.6889 28.6282 22.6642C28.6282 22.6642 28.5425 22.6315 28.5088 22.7174C28.4814 22.7875 28.2868 23.3226 28.2638 23.3888C28.2404 23.4541 28.2732 23.5056 28.3147 23.5205C28.4119 23.5553 28.4841 23.5775 28.6165 23.6087C28.8003 23.652 28.9553 23.6548 29.1005 23.6548C29.4045 23.6548 29.6816 23.612 29.9113 23.5291C30.1425 23.4455 30.3438 23.3 30.5218 23.1029C30.7143 22.8904 30.8353 22.6677 30.9511 22.3641C31.0657 22.0631 31.1633 21.6895 31.2414 21.2541L31.9857 17.0428H33.0739C33.0739 17.0428 33.1656 17.0462 33.1846 16.9467L33.3078 16.2598C33.3164 16.194 33.2883 16.153 33.1999 16.1534H32.1438C32.149 16.1295 32.197 15.758 32.3183 15.4083C32.37 15.2589 32.4674 15.1385 32.5499 15.0558C32.6269 14.977 32.7218 14.918 32.8265 14.8837C32.9413 14.8482 33.0609 14.8309 33.1811 14.8326C33.2806 14.8326 33.3781 14.8445 33.4525 14.86C33.5549 14.8818 33.5947 14.8933 33.6215 14.9013C33.7291 14.9341 33.7436 14.9023 33.7647 14.8502L34.0173 14.1565C34.0433 14.082 33.98 14.0506 33.9566 14.0414ZM19.1976 21.1863C19.1976 21.2416 19.1583 21.2866 19.103 21.2866H18.2269C18.1715 21.2866 18.1321 21.2416 18.1321 21.1863V14.1354C18.1321 14.0803 18.1715 14.0357 18.2269 14.0357H19.103C19.1583 14.0357 19.1976 14.0803 19.1976 14.1354V21.1863Z" fill="grey"/>
</g>
</svg>
