<svg width="145" height="40" viewBox="0 0 145 40"  xmlns="http://www.w3.org/2000/svg">
<path d="M0 9.74545H8.58182L13.5636 22.5091L18.6182 9.74545H26.9818L14.4 40H6L9.45454 32L0 9.74545ZM35.6727 9.23636C29.2364 9.23636 25.1636 15.0182 25.1636 20.7636C25.1636 27.2364 29.6364 32.3636 35.5636 32.3636C40 32.3636 41.6727 29.6727 41.6727 29.6727V31.7818H49.1636V9.74545H41.6727V11.7455C41.6364 11.7455 39.7818 9.23636 35.6727 9.23636ZM37.2727 16.3273C40.2545 16.3273 41.7818 18.6909 41.7818 20.8C41.7818 23.0909 40.1455 25.3455 37.2727 25.3455C34.9091 25.3455 32.7636 23.4182 32.7636 20.9091C32.7636 18.3636 34.4727 16.3273 37.2727 16.3273ZM51.7091 31.7818V0H59.5273V11.8182C59.5273 11.8182 61.3818 9.23636 65.2727 9.23636C70.0364 9.23636 72.8364 12.8 72.8364 17.8545V31.7818H65.0545V19.7455C65.0545 18.0364 64.2545 16.3636 62.4 16.3636C60.5091 16.3636 59.5273 18.0364 59.5273 19.7455V31.7818H51.7091ZM86.1818 9.23636C78.8 9.23636 74.4 14.8364 74.4 20.8727C74.4 27.7091 79.7091 32.4 86.2182 32.4C92.5091 32.4 98 27.9273 98 20.9818C98 13.3818 92.2182 9.23636 86.1818 9.23636ZM86.2545 16.3636C88.8727 16.3636 90.6545 18.5455 90.6545 20.8364C90.6545 22.8 88.9818 25.2364 86.2545 25.2364C83.7454 25.2364 81.8909 23.2364 81.8909 20.8C81.8909 18.5091 83.4182 16.3636 86.2545 16.3636ZM111.018 9.23636C103.636 9.23636 99.2364 14.8364 99.2364 20.8727C99.2364 27.7091 104.545 32.4 111.055 32.4C117.345 32.4 122.836 27.9273 122.836 20.9818C122.836 13.3818 117.091 9.23636 111.018 9.23636ZM111.091 16.3636C113.709 16.3636 115.491 18.5455 115.491 20.8364C115.491 22.8 113.818 25.2364 111.091 25.2364C108.582 25.2364 106.727 23.2364 106.727 20.8C106.727 18.5091 108.291 16.3636 111.091 16.3636ZM129.018 21.8545C131.891 21.8545 134.218 24.1818 134.218 27.0545C134.218 29.9273 131.891 32.2545 129.018 32.2545C126.145 32.2545 123.818 29.9273 123.818 27.0545C123.818 24.1818 126.145 21.8545 129.018 21.8545ZM135.927 19.9636H126.582L134.873 0H144.182L135.927 19.9636Z" />
</svg>
