<svg width="120" height="40" viewBox="0 0 120 40"  xmlns="http://www.w3.org/2000/svg">
<path d="M116.644 24.4886L119.984 26.7471C118.9 28.3667 116.307 31.1454 111.825 31.1454C106.259 31.1454 102.113 26.7769 102.113 21.2196C102.113 15.3058 106.302 11.2939 111.356 11.2939C116.439 11.2939 118.929 15.395 119.735 17.609L120.175 18.7382L107.079 24.236C108.075 26.2271 109.628 27.2375 111.825 27.2375C114.022 27.2375 115.546 26.1379 116.644 24.4886ZM106.376 20.9076L115.121 17.2226C114.637 15.9893 113.202 15.1127 111.488 15.1127C109.305 15.1127 106.273 17.074 106.376 20.9076Z" />
<path d="M95.7996 1.17529H100.018V30.2392H95.7996V1.17529Z" />
<path d="M89.1492 12.0668H93.2214V29.7191C93.2214 37.0445 88.9587 40.0609 83.9197 40.0609C79.1736 40.0609 76.3171 36.8216 75.2478 34.1916L78.9831 32.6166C79.657 34.2362 81.2829 36.153 83.9197 36.153C87.157 36.153 89.1492 34.1173 89.1492 30.3135V28.887H89.0027C88.0359 30.0757 86.1902 31.1456 83.8464 31.1456C78.9539 31.1456 74.4714 26.8216 74.4714 21.2496C74.4714 15.6478 78.9539 11.2793 83.8464 11.2793C86.1755 11.2793 88.0359 12.3343 89.0027 13.4933H89.1492V12.0668ZM89.4421 21.2496C89.4421 17.7429 87.1423 15.1872 84.2126 15.1872C81.2537 15.1872 78.7634 17.7429 78.7634 21.2496C78.7634 24.7117 81.2537 27.2228 84.2126 27.2228C87.1423 27.2377 89.4421 24.7117 89.4421 21.2496Z" />
<path d="M51.3122 21.1752C51.3122 26.8958 46.9177 31.1009 41.5271 31.1009C36.1365 31.1009 31.7419 26.881 31.7419 21.1752C31.7419 15.4248 36.1365 11.2346 41.5271 11.2346C46.9177 11.2346 51.3122 15.4248 51.3122 21.1752ZM47.0349 21.1752C47.0349 17.6091 44.4861 15.1574 41.5271 15.1574C38.5681 15.1574 36.0193 17.6091 36.0193 21.1752C36.0193 24.7116 38.5681 27.193 41.5271 27.193C44.4861 27.193 47.0349 24.7116 47.0349 21.1752Z" />
<path d="M72.6853 21.2196C72.6853 26.9403 68.2908 31.1454 62.9001 31.1454C57.5095 31.1454 53.115 26.9403 53.115 21.2196C53.115 15.4693 57.5095 11.2939 62.9001 11.2939C68.2908 11.2939 72.6853 15.4544 72.6853 21.2196ZM68.3933 21.2196C68.3933 17.6535 65.8445 15.2018 62.8855 15.2018C59.9265 15.2018 57.3777 17.6535 57.3777 21.2196C57.3777 24.7561 59.9265 27.2375 62.8855 27.2375C65.8591 27.2375 68.3933 24.7412 68.3933 21.2196Z" />
<path d="M15.6579 26.7918C9.52025 26.7918 4.71557 21.7696 4.71557 15.5437C4.71557 9.31785 9.52025 4.29556 15.6579 4.29556C18.9685 4.29556 21.3855 5.618 23.1726 7.3119L26.1169 4.32528C23.6267 1.90329 20.3015 0.060791 15.6579 0.060791C7.24975 0.060791 0.174561 7.01473 0.174561 15.5437C0.174561 24.0727 7.24975 31.0266 15.6579 31.0266C20.199 31.0266 23.6267 29.511 26.3073 26.6878C29.0613 23.8944 29.9109 19.9716 29.9109 16.7918C29.9109 15.7963 29.7937 14.771 29.6618 14.0132H15.6579V18.144H25.6335C25.3406 20.7294 24.5349 22.4976 23.3484 23.7012C21.9128 25.1722 19.6423 26.7918 15.6579 26.7918Z" />
</svg>
