<svg width="98" height="40" viewBox="0 0 98 40"  xmlns="http://www.w3.org/2000/svg">
<path d="M90.0447 28.0163C89.7843 28.0163 89.605 27.8358 89.605 27.5762V14.6805H85.2246C84.9641 14.6805 84.7845 14.5008 84.7845 14.2409V12.4621C84.7845 12.2016 84.9642 12.0214 85.2246 12.0214H96.8845C97.1447 12.0214 97.3238 12.2018 97.3238 12.4621V14.2408C97.3238 14.5005 97.1447 14.6805 96.8845 14.6805H92.5044V27.576C92.5044 27.8358 92.3242 28.0163 92.0647 28.0163H90.0447ZM56.4898 21.5781L54.1903 14.9808L51.8703 21.5781H56.4898ZM61.5898 27.4953C61.6903 27.7559 61.5299 28.0163 61.2499 28.0163H59.1703C58.8702 28.0163 58.69 27.8768 58.5897 27.5956L57.4102 24.1979H50.951L49.7695 27.5956C49.6703 27.8769 49.4896 28.0163 49.1902 28.0163H47.2309C46.9706 28.0163 46.7903 27.7558 46.8904 27.4953L52.3101 12.4221C52.4104 12.1413 52.5903 12.0221 52.8897 12.0221H55.5696C55.8699 12.0221 56.0699 12.1414 56.1699 12.4221L61.5898 27.4953ZM77.1247 25.8567C78.4041 25.8567 79.2645 25.2379 79.9646 24.1778L76.7253 20.6985C75.4848 21.3988 74.6844 22.0977 74.6844 23.4976C74.6846 24.8774 75.804 25.8567 77.1247 25.8567ZM78.0245 14.1406C76.9849 14.1406 76.385 14.801 76.385 15.6805C76.385 16.3602 76.7442 16.9601 77.5645 17.84C78.9843 17.0198 79.5846 16.5202 79.5846 15.6407C79.5846 14.8204 79.0648 14.1406 78.0245 14.1406ZM86.885 27.4565C87.1446 27.7366 86.985 28.0163 86.6641 28.0163H84.1242C83.7844 28.0163 83.6044 27.936 83.3845 27.6758L81.8646 25.9971C80.8448 27.3567 79.4237 28.3761 77.0643 28.3761C74.1446 28.3761 71.844 26.6168 71.844 23.5984C71.844 21.2785 73.0846 20.0386 74.9648 18.9992C74.0441 17.9397 73.6249 16.82 73.6249 15.8408C73.6249 13.361 75.3647 11.6619 77.9841 11.6619C80.6641 11.6619 82.3044 13.2419 82.3044 15.5806C82.3044 17.5799 80.8647 18.6985 79.3443 19.5389L81.5846 21.9588L82.8443 19.7588C83.0041 19.4993 83.1842 19.3989 83.5038 19.3989H85.4433C85.7638 19.3989 85.9438 19.6194 85.7444 19.9591L83.504 23.7972L86.885 27.4565ZM66.9262 28.0163C67.1861 28.0163 67.367 27.8358 67.367 27.5762V14.6805H71.7462C72.0062 14.6805 72.186 14.5008 72.186 14.2409V12.4621C72.186 12.2016 72.0062 12.0214 71.7462 12.0214H60.0862C59.8258 12.0214 59.6462 12.2018 59.6462 12.4621V14.2408C59.6462 14.5005 59.8259 14.6805 60.0862 14.6805H64.4654V27.576C64.4654 27.8358 64.646 28.0163 64.9057 28.0163H66.9262Z" />
<path d="M7.73805 35.7952C11.1297 38.4209 15.3869 39.9985 20.0057 39.9985C25.0603 39.9985 29.6682 38.1218 33.1849 35.0411C33.2275 35.0035 33.2065 34.9785 33.1645 35.0035C31.5864 36.0575 27.0887 38.3582 20.0059 38.3582C13.8507 38.3582 9.96081 36.9848 7.76412 35.7585C7.72209 35.7378 7.70652 35.7693 7.73805 35.7952ZM21.3637 36.8175C26.2868 36.8175 31.6967 35.4754 34.9322 32.8187C35.8176 32.0948 36.661 31.1314 37.4163 29.8367C37.8511 29.0917 38.2764 28.2066 38.6228 27.3366C38.6382 27.2942 38.612 27.2736 38.5801 27.3213C35.5712 31.7494 26.8583 34.5114 17.8618 34.5114C11.5027 34.5114 4.66042 32.4777 1.98162 28.5946C1.95525 28.5587 1.92888 28.574 1.94493 28.6153C4.44043 33.9198 12.0112 36.8175 21.3637 36.8175ZM15.9848 28.0177C5.74577 28.0177 0.91786 23.2486 0.0420822 19.994C0.0312821 19.9469 0.000244141 19.9572 0.000244141 19.9996C0.000244141 21.0952 0.109899 22.5091 0.298559 23.4477C0.38856 23.9045 0.760334 24.6214 1.3054 25.1929C3.78474 27.7774 9.96607 31.3989 20.6712 31.3989C35.2564 31.3989 38.5913 26.5401 39.2723 24.9423C39.7592 23.7995 40.0115 21.7344 40.0115 19.9997C40.0115 19.5799 40.001 19.2446 39.9852 18.9154C39.9852 18.862 39.9542 18.8576 39.9435 18.9097C39.2147 22.8195 26.7532 28.0177 15.9848 28.0177ZM1.92888 11.42C1.34218 12.5845 0.691837 14.5489 0.498506 15.5657C0.41376 16.0013 0.449857 16.2105 0.602615 16.5356C1.82983 19.1396 8.03733 23.306 22.517 23.306C31.3507 23.306 38.2129 21.1356 39.3246 17.175C39.5293 16.4459 39.5403 15.6761 39.2773 14.6389C38.9835 13.4798 38.4332 12.1281 37.9674 11.179C37.952 11.1481 37.9249 11.1526 37.9304 11.1892C38.1034 16.3839 23.618 19.7319 16.3093 19.7319C8.39266 19.7319 1.78799 16.5775 1.78799 12.5944C1.78799 12.2117 1.86719 11.8289 1.96605 11.4305C1.97597 11.3941 1.94484 11.3881 1.92888 11.42ZM33.2173 5.04199C33.3014 5.17374 33.3433 5.31435 33.3433 5.5036C33.3433 7.72565 26.5431 11.6566 15.718 11.6566C7.76412 11.6566 6.27498 8.7057 6.27498 6.82909C6.27498 6.15827 6.53223 5.47188 7.0988 4.77479C7.12974 4.73334 7.10347 4.71738 7.06776 4.74823C6.03446 5.62397 5.08503 6.60937 4.25216 7.67311C3.85421 8.17617 3.60717 8.62183 3.60717 8.88883C3.60717 12.7778 13.358 15.5975 22.4753 15.5975C32.1899 15.5975 36.5254 12.426 36.5254 9.63876C36.5254 8.64265 36.1377 8.06116 35.1459 6.93379C34.502 6.2004 33.8931 5.60324 33.2485 5.01543C33.2173 4.98974 33.1956 5.01066 33.2173 5.04199ZM30.2391 2.82043C27.241 1.02321 23.7594 0.000732422 20.0059 0.000732422C16.2263 0.000732422 12.6398 1.05892 9.63088 2.90372C8.72834 3.45923 8.22035 3.9044 8.22035 4.47665C8.22035 6.16352 12.1624 7.97728 19.156 7.97728C26.0771 7.97728 31.4452 5.99061 31.4452 4.07828C31.4452 3.62183 31.0463 3.30247 30.2391 2.82043Z"/>
</svg>
